<?xml version="1.0" encoding="iso-8859-1"?>
<!-- Uploaded to: SVG Repo, www.svgrepo.com, Generator: SVG Repo Mixer Tools -->
<!DOCTYPE svg PUBLIC "-//W3C//DTD SVG 1.1//EN" "http://www.w3.org/Graphics/SVG/1.1/DTD/svg11.dtd">
<svg fill="#000000" version="1.1" id="Capa_1" xmlns="http://www.w3.org/2000/svg" xmlns:xlink="http://www.w3.org/1999/xlink" 
	 width="800px" height="800px" viewBox="0 0 51.882 51.882"
	 xml:space="preserve">
<g>
	<g>
		<path d="M26.294,0.372c-0.055-0.002-0.111,0.003-0.168,0.012c-0.029,0-0.048-0.009-0.079-0.008
			C12.336,0.747,1.199,10.9,0.079,24.668C-1.117,39.373,11.48,51.12,25.583,51.502c13.784,0.373,25.131-10.909,26.22-24.296
			C52.999,12.5,40.396,0.753,26.294,0.372z M44.387,10.842c-2.606,4.795-5.104,9.648-7.535,14.537
			c-0.044,0.086-0.078,0.172-0.114,0.258c-0.212-0.037-0.46-0.062-0.737-0.076c0.146-0.124,0.274-0.259,0.357-0.409
			c2.693-4.892,5.147-9.91,7.461-14.983C44.01,10.39,44.203,10.612,44.387,10.842z M40.549,12.547
			c-1.996,4.258-4.102,8.462-6.336,12.601c-0.068,0.129-0.1,0.249-0.103,0.359c-0.146-0.005-0.289-0.009-0.433-0.016
			c0.109-0.122,0.203-0.255,0.26-0.399c0.646-1.669,1.325-3.325,2.014-4.974c0.213-0.509,0.619-1.305,0.904-1.776
			c1.188-1.956,2.385-3.905,3.59-5.852C40.736,12.022,40.785,12.047,40.549,12.547z M19.895,31.585
			c-1.068-1.436-2.137-2.871-3.205-4.306c-0.341-0.459-0.393-0.594-0.553-0.629c0.86,0,1.722,0,2.582,0
			c2.635,0,3.542-1.091,3.542-3.628c0-2.414,0-4.829,0-7.244c0-2.236-0.604-2.598,1.735-2.598c0.635,0,5.186-0.499,5.186,0.583
			c0,1.98,0,3.96,0,5.94c0,2.005-1.076,6.946,2.207,6.946c0.605,0,4.169-0.149,3.808,0.338c-1.04,1.396-2.079,2.793-3.118,4.188
			c-1.475,1.982-2.949,3.963-4.424,5.945c-0.538,0.723-1.077,1.445-1.614,2.168c-0.085,0.114-0.147,0.196-0.207,0.273
			C23.853,36.904,21.874,34.245,19.895,31.585z M24.786,40.906c-0.058,0.057-0.118,0.105-0.169,0.182
			c-0.307,0.452-0.619,0.903-0.936,1.354c-0.318,0.452-0.375,0.417-0.121-0.073c0.281-0.537,0.565-1.074,0.846-1.611
			c0.002-0.004,0.002-0.009,0.004-0.013c0.041,0.021,0.082,0.04,0.129,0.054C24.622,40.837,24.705,40.878,24.786,40.906z
			 M20.315,17.149c-1.725,2.815-3.451,5.631-5.175,8.445c-0.106,0.033-0.21,0.072-0.314,0.112c0.227-0.373,0.446-0.75,0.675-1.122
			c1.57-2.558,3.195-5.081,4.814-7.609C20.315,17.032,20.315,17.093,20.315,17.149z M20.37,20.479
			c0.013,1.023,0.014,2.15-0.021,3.072c-0.287,0.532-0.573,1.064-0.861,1.596c-0.046,0.085-0.074,0.162-0.105,0.239
			c-0.653-0.022-1.327-0.067-1.994-0.069c0.037-0.049,0.081-0.093,0.112-0.144C18.457,23.607,19.414,22.043,20.37,20.479z
			 M37.676,5.046c0.476,0.278,0.938,0.573,1.392,0.881c-0.909,3.683-2.229,7.262-3.681,10.804c-0.864,1.671-1.754,3.33-2.649,4.984
			c-0.541,0.904-1.073,1.812-1.608,2.717c0-2.599,0-5.196,0-7.795c0-0.117,0.012-0.29,0.026-0.485
			c2.148-3.703,4.303-7.402,6.51-11.071C37.671,5.069,37.67,5.058,37.676,5.046z M33.086,2.96c0.743,0.25,1.468,0.533,2.176,0.849
			c-0.012,0.017-0.03,0.026-0.043,0.043c-1.369,1.98-2.731,3.965-4.086,5.955c-0.311,0.457-0.873,0.893-1.235,1.032
			c-0.3,0.114-0.543,0.241-0.623,0.325c-0.142,0.151-0.273,0.309-0.408,0.465c-0.221,0.262-0.197,0.072,0.055-0.419
			c1.385-2.711,2.762-5.427,4.137-8.143C33.074,3.031,33.072,2.997,33.086,2.96z M29.869,5.18c-1.098,2.164-2.199,4.326-3.305,6.486
			c-0.031,0.061-0.033,0.114-0.049,0.172c-0.321,0.022-0.634,0.042-0.935,0.061c0.058-0.064,0.124-0.126,0.166-0.195
			c1.346-2.191,2.694-4.379,4.049-6.565C30.084,4.669,30.119,4.688,29.869,5.18z M29.116,1.98c0.18,0.029,0.361,0.054,0.539,0.087
			c-0.036,0.044-0.085,0.081-0.114,0.128c-1.5,2.409-3,4.819-4.49,7.235c-0.291,0.471-0.293,0.469-0.008-0.005
			c1.424-2.379,2.783-4.794,4.027-7.272C29.099,2.093,29.1,2.038,29.116,1.98z M22.658,1.921c0.854-0.136,1.718-0.227,2.591-0.272
			c-0.037,0.047-0.073,0.09-0.112,0.14c-2.066,2.647-4.106,5.317-6.092,8.028c-0.326,0.445-0.385,0.408-0.133-0.083
			c1.287-2.526,2.525-5.075,3.707-7.651C22.646,2.024,22.644,1.977,22.658,1.921z M7.864,10.06c-1.639,2.907-3.287,5.81-4.942,8.709
			C3.921,15.528,5.632,12.571,7.864,10.06z M2.127,28.392c-0.059-0.433-0.103-0.862-0.138-1.29
			c4.385-7.677,8.593-15.47,13.409-22.826c1.567-0.79,3.223-1.419,4.941-1.867c-0.01,0.017-0.026,0.035-0.035,0.054
			c-3.887,8.48-8.426,16.65-13.082,24.764c-1.31,2.085-2.584,4.192-3.837,6.312C2.796,31.874,2.366,30.15,2.127,28.392z
			 M5.492,38.076c-0.417-0.714-0.799-1.448-1.149-2.199c1.667-2.904,3.343-5.805,5.011-8.709
			c5.278-8.406,10.987-16.548,17.064-24.391c0.338-0.436,0.416-0.387,0.168,0.106c-4.422,8.753-10.26,16.759-15.283,25.177
			C9.326,31.371,7.397,34.716,5.492,38.076z M14.248,27.053c-1.7,2.775-3.396,5.555-5.101,8.326
			c-0.289,0.471-0.301,0.463-0.025-0.016c1.654-2.873,3.336-5.726,5.045-8.558C14.19,26.889,14.218,26.971,14.248,27.053z
			 M9.13,42.919c-0.518-0.547-1.014-1.116-1.484-1.707c2.538-4.097,5.062-8.203,7.578-12.315c0.389,0.565,0.828,1.122,1.284,1.663
			c-0.692,1.225-1.386,2.442-2.097,3.637c-0.92,1.549-1.822,3.108-2.713,4.675c-0.402,0.672-0.805,1.345-1.213,2.014
			C10.037,41.563,9.584,42.24,9.13,42.919z M11.052,44.742c-0.102-0.086-0.202-0.172-0.302-0.26
			c0.006-0.012,0.015-0.016,0.021-0.025c0.816-1.549,1.65-3.09,2.508-4.621c1.623-2.454,3.244-4.908,4.863-7.364
			c0.192,0.232,0.375,0.46,0.538,0.68c0.042,0.057,0.085,0.112,0.127,0.17c-1.969,3.122-3.998,6.207-6.136,9.22
			c-0.525,0.717-1.057,1.429-1.588,2.142C11.069,44.701,11.065,44.723,11.052,44.742z M17.342,48.627
			c-1.774-0.735-3.445-1.692-4.984-2.838c0.03-0.032,0.067-0.054,0.095-0.09c0.781-1.041,1.551-2.088,2.303-3.146
			c1.823-2.477,3.61-4.982,5.315-7.534c0.918,1.232,1.836,2.466,2.754,3.698c-1.813,3.191-3.607,6.394-5.385,9.604
			C17.383,48.42,17.359,48.524,17.342,48.627z M22.857,50.107c-0.977-0.127-1.934-0.323-2.869-0.577
			c0.107-0.125,0.225-0.262,0.355-0.41c1.598-1.832,3.109-3.745,4.549-5.696c0.328-0.443,0.438-0.385,0.248,0.134
			c-0.744,2.051-1.49,4.099-2.236,6.147C22.852,49.844,22.842,49.98,22.857,50.107z M25.332,49.241
			c-0.238,0.499-0.277,0.48-0.09-0.038c1.463-4.028,2.924-8.057,4.369-12.091c0.128-0.193,0.253-0.378,0.372-0.538
			c0.856-1.152,2.084-2.481,3.298-3.888C30.609,38.193,27.973,43.719,25.332,49.241z M44.61,41.117
			c1.738-3.875,3.467-7.754,5.145-11.649C49.171,33.807,47.325,37.806,44.61,41.117z M49.755,23.482
			c0.03,0.226,0.049,0.45,0.072,0.675c-2.86,6.974-5.979,13.852-9.061,20.746c-1.955,1.548-4.148,2.81-6.5,3.726
			c0.864-1.999,1.718-4.004,2.559-6.014c3.825-7.629,7.993-15.09,12.224-22.515C49.344,21.198,49.596,22.319,49.755,23.482z
			 M48.293,17.746c-0.562,0.984-1.127,1.968-1.688,2.952c-0.273,0.48-0.304,0.463-0.068-0.036c0.531-1.132,1.058-2.265,1.581-3.398
			C48.179,17.421,48.232,17.585,48.293,17.746z M47.064,14.933c-1.842,4.098-3.796,8.151-5.707,12.214
			c-2.488,5.293-4.72,10.702-6.974,16.102c-1.024,2.056-2.021,4.126-2.992,6.21c-0.017,0.036-0.014,0.062-0.024,0.097
			c-1.287,0.325-2.607,0.555-3.954,0.663c-0.152,0.014-0.303,0.017-0.454,0.024c0.056-0.091,0.111-0.186,0.16-0.286
			c6.018-12.562,11.91-25.192,18.485-37.455C46.13,13.283,46.626,14.087,47.064,14.933z"/>
	</g>
</g>
</svg>